<svg width="18" height="20" viewBox="0 0 18 20" fill="none" xmlns="http://www.w3.org/2000/svg">
<path fill-rule="evenodd" clip-rule="evenodd" d="M6.43921 17.531C6.15798 17.2305 6 16.8231 6 16.3983C6 15.9735 6.15798 15.5661 6.43921 15.2657L11.3791 9.99033L6.43921 4.71493C6.16595 4.41279 6.01475 4.00812 6.01817 3.58808C6.02159 3.16804 6.17935 2.76624 6.45748 2.46922C6.73562 2.17219 7.11186 2.00371 7.50519 2.00006C7.89851 1.99641 8.27744 2.15788 8.56036 2.4497L14.5608 8.85771C14.842 9.15813 15 9.56553 15 9.99033C15 10.4151 14.842 10.8225 14.5608 11.1229L8.56036 17.531C8.27905 17.8313 7.89756 18 7.49979 18C7.10201 18 6.72052 17.8313 6.43921 17.531Z" fill="black"/>
</svg>
