<svg width="21" height="21" viewBox="0 0 21 21" fill="none" xmlns="http://www.w3.org/2000/svg">
<path d="M2.5 3.75598C2.5 3.49076 2.60536 3.23641 2.79289 3.04887C2.98043 2.86134 3.23478 2.75598 3.5 2.75598H5.653C5.88971 2.75609 6.1187 2.84016 6.29924 2.99324C6.47979 3.14632 6.60018 3.35848 6.639 3.59198L7.379 8.02698C7.41436 8.2382 7.38097 8.45519 7.28376 8.64601C7.18655 8.83683 7.03065 8.99141 6.839 9.08698L5.291 9.85998C5.84611 11.2356 6.67283 12.4853 7.72178 13.5342C8.77072 14.5831 10.0203 15.4099 11.396 15.965L12.17 14.417C12.2655 14.2255 12.4199 14.0697 12.6106 13.9725C12.8012 13.8753 13.0179 13.8419 13.229 13.877L17.664 14.617C17.8975 14.6558 18.1097 14.7762 18.2627 14.9567C18.4158 15.1373 18.4999 15.3663 18.5 15.603V17.756C18.5 18.0212 18.3946 18.2756 18.2071 18.4631C18.0196 18.6506 17.7652 18.756 17.5 18.756H15.5C8.32 18.756 2.5 12.936 2.5 5.75598V3.75598Z" fill="white"/>
</svg>
