<svg width="33" height="34" viewBox="0 0 33 34" fill="none" xmlns="http://www.w3.org/2000/svg">
<path d="M28.875 29.375L20.625 21.125M23.375 14.25C23.375 15.514 23.126 16.7656 22.6423 17.9333C22.1586 19.1011 21.4497 20.1621 20.5559 21.0559C19.6621 21.9497 18.6011 22.6586 17.4333 23.1423C16.2656 23.626 15.014 23.875 13.75 23.875C12.486 23.875 11.2344 23.626 10.0667 23.1423C8.89891 22.6586 7.83786 21.9497 6.9441 21.0559C6.05033 20.1621 5.34136 19.1011 4.85766 17.9333C4.37396 16.7656 4.125 15.514 4.125 14.25C4.125 11.6973 5.13906 9.24913 6.9441 7.4441C8.74913 5.63906 11.1973 4.625 13.75 4.625C16.3027 4.625 18.7509 5.63906 20.5559 7.4441C22.3609 9.24913 23.375 11.6973 23.375 14.25Z" stroke="white" stroke-width="2" stroke-linecap="round" stroke-linejoin="round"/>
</svg>
